<?xml version="1.0" ?><!DOCTYPE svg  PUBLIC '-//W3C//DTD SVG 1.1//EN'  'http://www.w3.org/Graphics/SVG/1.1/DTD/svg11.dtd'><svg enable-background="new 0 0 512 512" height="512px" id="Слой_1" version="1.1" fill="fuchsia" viewBox="0 0 512 512" width="512px" xml:space="preserve" xmlns="http://www.w3.org/2000/svg" xmlns:xlink="http://www.w3.org/1999/xlink"><g id="Instagram_1_"><path d="M256,355.621c54.2,0,98.137-43.904,98.137-98.121c0-54.187-43.938-98.123-98.137-98.123   c-54.201,0-98.12,43.936-98.12,98.123C157.88,311.717,201.799,355.621,256,355.621z M202.315,203.784   c14.343-14.313,33.404-22.218,53.685-22.218c20.296,0,39.357,7.906,53.716,22.218c14.327,14.375,22.219,33.437,22.219,53.716   c0,20.313-7.892,39.375-22.219,53.717c-14.357,14.344-33.42,22.219-53.716,22.219c-20.28,0-39.342-7.875-53.685-22.219   c-14.344-14.344-22.249-33.404-22.249-53.717C180.066,237.219,187.972,218.158,202.315,203.784z"/><path d="M394.243,0.009H117.772c-6.281,0-12.438,0.5-18.452,1.438h18.857v118.809H95.977V2.041   c-7.672,1.438-15.077,3.625-22.172,6.469v111.746H51.619V20.353C20.464,41.54,0.012,77.256,0.012,117.755v41.623h159.415   c24.78-24.28,58.686-39.248,96.137-39.248c37.436,0,71.354,14.968,96.12,39.248h160.305v-41.623   C511.987,52.727,459.287,0.009,394.243,0.009z M450.975,120.13h-58.044V62.102h58.044V120.13z"/><path d="M392.931,257.5c0,75.873-61.515,137.402-137.368,137.402c-75.888,0-137.385-61.529-137.385-137.402   c0-28.062,8.421-54.153,22.905-75.935H0.012v212.681c0,65.027,52.732,117.744,117.761,117.744h276.471   c65.044,0,117.744-52.717,117.744-117.744V181.565H370.025C384.51,203.345,392.931,229.438,392.931,257.5z"/></g></svg>
